<?xml version="1.0" encoding="UTF-8" standalone="no"?>
<!DOCTYPE svg PUBLIC "-//W3C//DTD SVG 1.0//EN" "http://www.w3.org/TR/2001/REC-SVG-20010904/DTD/svg10.dtd">
<!-- Generiert durch Microsoft Visio 11.0, SVG Export, v1.0 Trainshare app train.svg Page-1 -->
<svg xmlns="http://www.w3.org/2000/svg" xmlns:xlink="http://www.w3.org/1999/xlink" xmlns:ev="http://www.w3.org/2001/xml-events"
		xmlns:v="http://schemas.microsoft.com/visio/2003/SVGExtensions/" width="11.6929in" height="8.26772in"
		viewBox="0 0 841.89 595.276" xml:space="preserve" color-interpolation-filters="sRGB" class="st9">
	<v:documentProperties v:langID="2055" v:metric="true">
		<v:userDefs>
			<v:ud v:nameU="msvNoAutoConnect" v:val="VT0(1):26"/>
		</v:userDefs>
	</v:documentProperties>

	<style type="text/css">
	<![CDATA[
		.st1 {fill:none;stroke:#000000;stroke-linecap:round;stroke-linejoin:round;stroke-width:0.75}
		.st2 {stroke:#000000;stroke-linecap:round;stroke-linejoin:round;stroke-width:1.5}
		.st3 {stroke:#000000;stroke-linecap:round;stroke-linejoin:round;stroke-width:0.75}
		.st4 {fill:#000000;stroke:none;stroke-linecap:round;stroke-linejoin:round;stroke-width:0.75}
		.st5 {visibility:visible}
		.st6 {fill:#ffffff;fill-opacity:0.4;stroke:#ffffff;stroke-linecap:round;stroke-linejoin:round;stroke-opacity:0.4;stroke-width:0.75}
		.st7 {fill:#000000;stroke:#ffffff;stroke-linecap:round;stroke-linejoin:round;stroke-width:0.75}
		.st8 {fill:#ffffff;stroke:#000000;stroke-linecap:round;stroke-linejoin:round;stroke-width:1.5}
		.st9 {fill:none;fill-rule:evenodd;font-size:12px;overflow:visible;stroke-linecap:square;stroke-miterlimit:3}
	]]>
	</style>

	<g v:mID="0" v:index="1" v:groupContext="foregroundPage">
		<title>Page-1</title>
		<v:pageProperties v:drawingScale="0.0393701" v:pageScale="0.0393701" v:drawingUnits="24" v:shadowOffsetX="8.50394"
				v:shadowOffsetY="-8.50394"/>
		<g id="shape2-1" v:mID="2" v:groupContext="shape" transform="translate(347.244,-389.764)">
			<title>Tabelle.2</title>
			<rect x="0" y="574.016" width="170.079" height="21.2598" class="st1"/>
		</g>
		<g id="shape9-3" v:mID="9" v:groupContext="shape" transform="translate(1190.55,184.252) rotate(90)">
			<title>Tabelle.9</title>
			<path d="M0 595.28 L21.26 595.28" class="st2"/>
		</g>
		<g id="shape10-6" v:mID="10" v:groupContext="shape" transform="translate(1218.9,184.252) rotate(90)">
			<title>Tabelle.10</title>
			<path d="M0 595.28 L21.26 595.28" class="st2"/>
		</g>
		<g id="shape11-9" v:mID="11" v:groupContext="shape" transform="translate(1247.24,184.252) rotate(90)">
			<title>Tabelle.11</title>
			<path d="M0 595.28 L21.26 595.28" class="st2"/>
		</g>
		<g id="shape12-12" v:mID="12" v:groupContext="shape" transform="translate(1275.59,184.252) rotate(90)">
			<title>Tabelle.12</title>
			<path d="M0 595.28 L21.26 595.28" class="st2"/>
		</g>
		<g id="shape13-15" v:mID="13" v:groupContext="shape" transform="translate(1303.94,184.252) rotate(90)">
			<title>Tabelle.13</title>
			<path d="M0 595.28 L21.26 595.28" class="st2"/>
		</g>
		<g id="shape14-18" v:mID="14" v:groupContext="shape" transform="translate(1332.28,184.252) rotate(90)">
			<title>Tabelle.14</title>
			<path d="M0 595.28 L21.26 595.28" class="st3"/>
		</g>
		<g id="shape15-21" v:mID="15" v:groupContext="shape" transform="translate(1162.2,184.252) rotate(90)">
			<title>Tabelle.15</title>
			<path d="M0 595.28 L21.26 595.28" class="st3"/>
		</g>
		<g id="shape19-24" v:mID="19" v:groupContext="shape" transform="translate(333.071,-389.764)">
			<title>Tabelle.19</title>
			<rect x="0" y="574.016" width="184.252" height="21.2598" class="st1"/>
		</g>
		<g id="shape22-26" v:mID="22" v:groupContext="shape" transform="translate(1084.25,184.252) rotate(90)">
			<title>Tabelle.22</title>
			<path d="M0 595.28 L21.26 595.28" class="st2"/>
		</g>
		<g id="shape23-29" v:mID="23" v:groupContext="shape" transform="translate(1055.91,184.252) rotate(90)">
			<title>Tabelle.23</title>
			<path d="M0 595.28 L21.26 595.28" class="st2"/>
		</g>
		<g id="shape24-32" v:mID="24" v:groupContext="shape" transform="translate(1027.56,184.252) rotate(90)">
			<title>Tabelle.24</title>
			<path d="M0 595.28 L21.26 595.28" class="st2"/>
		</g>
		<g id="shape25-35" v:mID="25" v:groupContext="shape" transform="translate(999.213,184.252) rotate(90)">
			<title>Tabelle.25</title>
			<path d="M0 595.28 L21.26 595.28" class="st2"/>
		</g>
		<g id="shape26-38" v:mID="26" v:groupContext="shape" transform="translate(970.866,184.252) rotate(90)">
			<title>Tabelle.26</title>
			<path d="M0 595.28 L21.26 595.28" class="st2"/>
		</g>
		<g id="shape28-41" v:mID="28" v:groupContext="shape" transform="translate(113.386,-389.764)">
			<title>Tabelle.28</title>
			<rect x="0" y="574.016" width="184.252" height="21.2598" class="st1"/>
		</g>
		<g id="shape31-43" v:mID="31" v:groupContext="shape" transform="translate(864.567,184.252) rotate(90)">
			<title>Tabelle.31</title>
			<path d="M0 595.28 L21.26 595.28" class="st2"/>
		</g>
		<g id="shape32-46" v:mID="32" v:groupContext="shape" transform="translate(836.22,184.252) rotate(90)">
			<title>Tabelle.32</title>
			<path d="M0 595.28 L21.26 595.28" class="st2"/>
		</g>
		<g id="shape33-49" v:mID="33" v:groupContext="shape" transform="translate(807.874,184.252) rotate(90)">
			<title>Tabelle.33</title>
			<path d="M0 595.28 L21.26 595.28" class="st2"/>
		</g>
		<g id="shape34-52" v:mID="34" v:groupContext="shape" transform="translate(779.528,184.252) rotate(90)">
			<title>Tabelle.34</title>
			<path d="M0 595.28 L21.26 595.28" class="st2"/>
		</g>
		<g id="shape35-55" v:mID="35" v:groupContext="shape" transform="translate(751.181,184.252) rotate(90)">
			<title>Tabelle.35</title>
			<path d="M0 595.28 L21.26 595.28" class="st2"/>
		</g>
		<g id="shape66-58" v:mID="66" v:groupContext="shape" transform="translate(325.984,-368.504)">
			<title>Tabelle.66</title>
			<rect x="0" y="551.622" width="7.08661" height="43.6535" class="st4"/>
		</g>
		<g id="shape67-60" v:mID="67" v:groupContext="shape" transform="translate(331.654,-368.504)">
			<title>Tabelle.67</title>
			<path d="M0 588 L14.27 588 L14.27 573.45 L185.52 573.45 L185.52 588 L199.79 588 L199.79 551.62 L206.93 551.62 L206.93
						 595.28 L0 595.28 L0 588 Z" class="st4"/>
		</g>
		<g id="shape17-62" v:mID="17" v:groupContext="shape" transform="translate(325.984,-411.024)">
			<title>Tabelle.17</title>
			<path d="M0 588.19 L212.6 588.19 L212.6 595.28 L0 595.28 L0 588.19 Z" class="st4"/>
		</g>
		<g id="shape20-64" v:mID="20" v:groupContext="shape" transform="translate(333.071,-375.591)">
			<title>Tabelle.20</title>
			<g id="shadow20-65" v:groupContext="shadow" v:shadowOffsetX="-1.41732" v:shadowOffsetY="-1.41732" v:shadowType="1"
					transform="matrix(1,0,0,1,-1.41732,1.41732)" class="st5">
				<path d="M14.17 559.84 L0 559.84 L0 595.28 L14.17 595.28 L14.17 559.84 Z" class="st6"/>
			</g>
			<path d="M14.17 559.84 L0 559.84 L0 595.28 L14.17 595.28 L14.17 559.84 Z" class="st7"/>
		</g>
		<g id="shape21-68" v:mID="21" v:groupContext="shape" transform="translate(517.323,-375.591)">
			<title>Tabelle.21</title>
			<g id="shadow21-69" v:groupContext="shadow" v:shadowOffsetX="-1.41732" v:shadowOffsetY="-1.41732" v:shadowType="1"
					transform="matrix(1,0,0,1,-1.41732,1.41732)" class="st5">
				<path d="M14.17 559.84 L0 559.84 L0 595.28 L14.17 595.28 L14.17 559.84 Z" class="st6"/>
			</g>
			<path d="M14.17 559.84 L0 559.84 L0 595.28 L14.17 595.28 L14.17 559.84 Z" class="st7"/>
		</g>
		<g id="shape65-72" v:mID="65" v:groupContext="shape" transform="translate(737.008,-368.504)">
			<title>Tabelle.65</title>
			<path d="M0 574.02 L0 588.19 L14.17 588.19 L14.17 595.28" class="st3"/>
		</g>
		<g id="shape16-75" v:mID="16" v:groupContext="shape" transform="translate(566.929,-389.764)">
			<title>Tabelle.16</title>
			<rect x="0" y="574.016" width="170.079" height="21.2598" class="st1"/>
		</g>
		<g id="shape68-77" v:mID="68" v:groupContext="shape" transform="translate(112.819,-411.024)">
			<title>Tabelle.68</title>
			<path d="M0 588.19 L206.08 588.19 L206.08 595.28 L0 595.28 L0 588.19 Z" class="st4"/>
		</g>
		<g id="shape27-79" v:mID="27" v:groupContext="shape" transform="translate(110.551,-368.504)">
			<title>Tabelle.27</title>
			<rect x="0" y="573.449" width="208.063" height="21.8268" class="st4"/>
		</g>
		<g id="shape69-81" v:mID="69" v:groupContext="shape" transform="translate(311.811,-368.504)">
			<title>Tabelle.69</title>
			<rect x="0" y="545.953" width="7.08661" height="49.3228" class="st4"/>
		</g>
		<g id="shape30-83" v:mID="30" v:groupContext="shape" transform="translate(297.638,-376.299)">
			<title>Tabelle.30</title>
			<g id="shadow30-84" v:groupContext="shadow" v:shadowOffsetX="-1.41732" v:shadowOffsetY="-1.41732" v:shadowType="1"
					transform="matrix(1,0,0,1,-1.41732,1.41732)" class="st5">
				<path d="M14.17 559.84 L0 559.84 L0 595.28 L14.17 595.28 L14.17 559.84 Z" class="st6"/>
			</g>
			<path d="M14.17 559.84 L0 559.84 L0 595.28 L14.17 595.28 L14.17 559.84 Z" class="st7"/>
		</g>
		<g id="shape71-87" v:mID="71" v:groupContext="shape" transform="translate(104.882,-368.504)">
			<title>Tabelle.71</title>
			<path d="M0 581.95 L0 595.28 L8.5 595.28 L8.5 545.67 A36.858 8.5057 -90 0 0 0 581.95 Z" class="st4"/>
		</g>
		<g id="shape29-89" v:mID="29" v:groupContext="shape" transform="translate(113.386,-375.591)">
			<title>Tabelle.29</title>
			<g id="shadow29-90" v:groupContext="shadow" v:shadowOffsetX="-1.41732" v:shadowOffsetY="-1.41732" v:shadowType="1"
					transform="matrix(1,0,0,1,-1.41732,1.41732)" class="st5">
				<path d="M14.17 559.84 L0 559.84 L0 595.28 L14.17 595.28 L14.17 559.84 Z" class="st6"/>
			</g>
			<path d="M14.17 559.84 L0 559.84 L0 595.28 L14.17 595.28 L14.17 559.84 Z" class="st7"/>
		</g>
		<g id="shape70-93" v:mID="70" v:groupContext="shape" transform="translate(545.669,-368.504)">
			<title>Tabelle.70</title>
			<rect x="0" y="574.016" width="250.299" height="21.2598" class="st4"/>
		</g>
		<g id="shape72-95" v:mID="72" v:groupContext="shape" transform="translate(545.669,-411.024)">
			<title>Tabelle.72</title>
			<rect x="0" y="588.189" width="214.016" height="7.08661" class="st4"/>
		</g>
		<g id="shape73-97" v:mID="73" v:groupContext="shape" transform="translate(751.181,-388.346)">
			<title>Tabelle.73</title>
			<rect x="0" y="569.764" width="7.37008" height="25.5118" class="st4"/>
		</g>
		<g id="shape74-99" v:mID="74" v:groupContext="shape" transform="translate(545.669,-385.512)">
			<title>Tabelle.74</title>
			<rect x="0" y="568.063" width="7.08661" height="27.2126" class="st4"/>
		</g>
		<g id="shape75-101" v:mID="75" v:groupContext="shape" transform="translate(795.897,-368.504)">
			<title>Tabelle.75</title>
			<path d="M7.8 580.65 C9.79 584.25 11.58 590.26 10.67 595.28 L0.05 595.28 L0 573.73 L7.8 580.65 Z" class="st4"/>
		</g>
		<g id="shape76-103" v:mID="76" v:groupContext="shape" transform="translate(758.268,-411.024)">
			<title>Tabelle.76</title>
			<path d="M1.42 588.19 C7.05 588.61 11.1 592.62 14.17 595.28 L0 595.28 L0 588.19 L1.42 588.19 Z" class="st4"/>
		</g>
		<g id="shape7-105" v:mID="7" v:groupContext="shape" transform="translate(1391.24,206.614) rotate(90)">
			<title>Tabelle.7</title>
			<path d="M0 595.28 L19.42 595.28" class="st3"/>
		</g>
		<g id="shape8-108" v:mID="8" v:groupContext="shape" transform="translate(758.268,-389.48)">
			<title>Tabelle.8</title>
			<path d="M0 574.3 L13.75 574.3 L37.13 595.28 L0.28 595.28 L0 574.3 Z" class="st8"/>
		</g>
		<g id="shape18-110" v:mID="18" v:groupContext="shape" transform="translate(737.008,-375.591)">
			<title>Tabelle.18</title>
			<g id="shadow18-111" v:groupContext="shadow" v:shadowOffsetX="-1.41732" v:shadowOffsetY="-1.41732" v:shadowType="1"
					transform="matrix(1,0,0,1,-1.41732,1.41732)" class="st5">
				<path d="M14.17 559.84 L0 559.84 L0 595.28 L14.17 595.28 L14.17 559.84 Z" class="st6"/>
			</g>
			<path d="M14.17 559.84 L0 559.84 L0 595.28 L14.17 595.28 L14.17 559.84 Z" class="st7"/>
		</g>
		<g id="shape63-114" v:mID="63" v:groupContext="shape" transform="translate(552.756,-375.591)">
			<title>Tabelle.63</title>
			<g id="shadow63-115" v:groupContext="shadow" v:shadowOffsetX="-1.41732" v:shadowOffsetY="-1.41732" v:shadowType="1"
					transform="matrix(1,0,0,1,-1.41732,1.41732)" class="st5">
				<path d="M14.17 559.84 L0 559.84 L0 595.28 L14.17 595.28 L14.17 559.84 Z" class="st6"/>
			</g>
			<path d="M14.17 559.84 L0 559.84 L0 595.28 L14.17 595.28 L14.17 559.84 Z" class="st7"/>
		</g>
	</g>
</svg>
